<?xml version="1.0" encoding="UTF-8" standalone="no"?>
<svg width="32px" height="32px" viewBox="0 0 32 32" version="1.1" xmlns="http://www.w3.org/2000/svg" xmlns:xlink="http://www.w3.org/1999/xlink">
    <!-- Generator: Sketch 3.8.3 (29802) - http://www.bohemiancoding.com/sketch -->
    <title>1467088482_46-facebook</title>
    <desc>Created with Sketch.</desc>
    <defs></defs>
    <g id="Page-1" stroke="none" stroke-width="1" fill="none" fill-rule="evenodd">
        <g id="1467088482_46-facebook" fill="#FFFFFF">
            <g id="Layer_1">
                <path d="M16.22208,0.10048 C7.51808,0.10048 0.46208,7.15776 0.46208,15.86048 C0.46208,24.56448 7.51808,31.6192 16.22208,31.6192 C24.92608,31.6192 31.98208,24.56448 31.98208,15.86048 C31.98208,7.15776 24.92544,0.10048 16.22208,0.10048 L16.22208,0.10048 Z M20.39296,15.79456 L17.664,15.79456 L17.664,25.52704 L13.6192,25.52704 L13.6192,15.79456 L11.69536,15.79456 L11.69536,12.3584 L13.6192,12.3584 L13.6192,10.13184 C13.6192,8.53824 14.37568,6.05056 17.70176,6.05056 L20.69696,6.06208 L20.69696,9.39968 L18.52224,9.39968 C18.16704,9.39968 17.66464,9.57696 17.66464,10.33472 L17.66464,12.35904 L20.74816,12.35904 L20.39296,15.79456 L20.39296,15.79456 Z" id="Shape"></path>
            </g>
        </g>
    </g>
</svg>