<?xml version="1.0" encoding="UTF-8" standalone="no"?>
<svg width="55px" height="49px" viewBox="0 0 55 49" version="1.1" xmlns="http://www.w3.org/2000/svg" xmlns:xlink="http://www.w3.org/1999/xlink">
    <!-- Generator: Sketch 3.8.3 (29802) - http://www.bohemiancoding.com/sketch -->
    <title>Page 1</title>
    <desc>Created with Sketch.</desc>
    <defs></defs>
    <g id="Page-1" stroke="none" stroke-width="1" fill="none" fill-rule="evenodd">
        <g fill="#FFFFFF">
            <path d="M4.023,7.625 L51.047,7.625 C52.922,7.625 54.422,6.125 54.422,4.25 C54.422,2.375 52.922,0.875 51.047,0.875 L4.023,0.875 C2.148,0.875 0.648,2.375 0.648,4.25 C0.648,6.125 2.148,7.625 4.023,7.625 L4.023,7.625 Z" id="Fill-1"></path>
            <path d="M51.051,21.125 L4.023,21.125 C2.148,21.125 0.648,22.625 0.648,24.5 C0.648,26.375 2.148,27.875 4.023,27.875 L51.047,27.875 C52.922,27.875 54.422,26.375 54.422,24.5 C54.422,22.625 52.926,21.125 51.051,21.125 L51.051,21.125 Z" id="Fill-2"></path>
            <path d="M51.051,41.375 L4.023,41.375 C2.148,41.375 0.648,42.875 0.648,44.75 C0.648,46.625 2.148,48.125 4.023,48.125 L51.047,48.125 C52.922,48.125 54.422,46.625 54.422,44.75 C54.422,42.875 52.926,41.375 51.051,41.375 L51.051,41.375 Z" id="Fill-3"></path>
        </g>
    </g>
</svg>