<?xml version="1.0" encoding="UTF-8" standalone="no"?>
<svg width="24px" height="24px" viewBox="0 0 24 24" version="1.1" xmlns="http://www.w3.org/2000/svg" xmlns:xlink="http://www.w3.org/1999/xlink">
    <!-- Generator: Sketch 3.8.3 (29802) - http://www.bohemiancoding.com/sketch -->
    <title>Group 7 Copy 3</title>
    <desc>Created with Sketch.</desc>
    <defs></defs>
    <g id="Page-1" stroke="none" stroke-width="1" fill="none" fill-rule="evenodd">
        <g id="Desktop-HD-Copy-6" transform="translate(-812.000000, -2627.000000)" fill="#000000">
            <g id="Group-8" transform="translate(-75.000000, 2201.000000)">
                <g id="Group-7-Copy-3" transform="translate(887.000000, 426.000000)">
                    <path d="M11.8681319,1.06666667 C17.8304176,1.06666667 22.6813187,5.9712 22.6813187,11.9997333 C22.6813187,18.0282667 17.8304176,22.9330667 11.8681319,22.9330667 C5.90584615,22.9330667 1.05494505,18.0282667 1.05494505,11.9997333 C1.05494505,5.9712 5.90584615,1.06666667 11.8681319,1.06666667 L11.8681319,1.06666667 Z M11.8681319,-3.55271368e-15 C5.31323077,-3.55271368e-15 0,5.37226667 0,11.9997333 C0,18.6274667 5.31323077,23.9997333 11.8681319,23.9997333 C18.4227692,23.9997333 23.7362637,18.6274667 23.7362637,11.9997333 C23.7362637,5.37226667 18.4227692,-3.55271368e-15 11.8681319,-3.55271368e-15 L11.8681319,-3.55271368e-15 L11.8681319,-3.55271368e-15 Z" id="Shape"></path>
                    <path d="M6.22230037,18.0863408 C6.22230037,18.0863408 6.35917949,18.2151408 6.61500366,18.4572741 C6.67909158,18.5178074 6.75082784,18.5850074 6.82942125,18.6596741 C6.90748718,18.7202074 6.99267399,18.7858074 7.08498168,18.8570074 C7.17702564,18.9284741 7.275663,19.0052741 7.38089377,19.0871408 C7.48401465,19.1711408 7.61720147,19.2412741 7.74484982,19.3263408 C8.25570696,19.6767408 8.94300366,19.9956741 9.76137729,20.2599408 C10.5850256,20.5250074 11.5542564,20.6554074 12.6345201,20.5930074 C12.925685,20.5946074 13.1712234,20.5372741 13.4420806,20.5036741 C13.7087179,20.4796741 13.9837949,20.3927408 14.2628278,20.3282074 C14.8201026,20.1852741 15.3739487,19.9580741 15.9235751,19.6847408 C17.015707,19.1223408 18.0287179,18.2519408 18.8281026,17.1599408 C18.9359707,17.0290074 19.0245861,16.8836741 19.1124103,16.7372741 C19.2023443,16.5916741 19.2925421,16.4455408 19.3827399,16.2991408 C19.458696,16.1442074 19.534652,15.9887408 19.6111355,15.8330074 C19.6899927,15.6780741 19.7664762,15.5212741 19.8213333,15.3546074 C19.8827839,15.1908741 19.9447619,15.0263408 20.0064762,14.8612741 C20.0663443,14.6956741 20.1008938,14.5215408 20.1499487,14.3511408 C20.2567619,14.0116741 20.2992234,13.6564741 20.3588278,13.3026074 C20.3965421,13.1266074 20.3933773,12.9455408 20.4081465,12.7658074 C20.4168498,12.5922074 20.4350476,12.3922074 20.4368938,12.2386074 L20.4150037,11.6762074 L20.4039267,11.3943408 L20.3662125,11.1290074 L20.2921026,10.5967408 C20.2570256,10.4191408 20.2082344,10.2420741 20.1668278,10.0644741 C20.0972015,9.70420743 19.9505641,9.36714076 19.83663,9.01914076 C19.5494212,8.34847409 19.2205421,7.68580743 18.7727179,7.10820743 C18.5714872,6.80207409 18.3130256,6.54394076 18.0775092,6.26714076 C17.9551355,6.13327409 17.8158828,6.01647409 17.6863883,5.89007409 C17.5539927,5.76660743 17.4268718,5.63727409 17.2791795,5.53300743 C16.1577729,4.62874076 14.8340806,4.00420743 13.4758388,3.77487409 C12.1220806,3.53007409 10.7535531,3.61967409 9.54115751,3.97300743 C8.32111355,4.32794076 7.26089377,4.95460743 6.41324542,5.67647409 C5.56586081,6.40314076 4.91917949,7.22314076 4.47531136,8.02154076 C4.35873993,8.21780743 4.2727619,8.42314076 4.17517949,8.61300743 C4.12955311,8.70954076 4.07865201,8.80180743 4.03961905,8.89727409 C4.00348718,8.99380743 3.96814652,9.08847409 3.93333333,9.18127409 C3.86608059,9.36767409 3.7919707,9.54367409 3.73843223,9.71727409 C3.69148718,9.89327409 3.64691575,10.0610074 3.60445421,10.2202074 C3.50608059,10.5359408 3.48181685,10.8314074 3.43487179,11.0836741 C3.38502564,11.3359408 3.37500366,11.5543408 3.36577289,11.7311408 C3.34493773,12.0855408 3.33333333,12.2743408 3.33333333,12.2743408 C3.33333333,12.2743408 3.34071795,12.0855408 3.35443223,11.7311408 C3.3599707,11.5538074 3.36498168,11.3346074 3.40955311,11.0810074 C3.45095971,10.8274074 3.46915751,10.5295408 3.56067399,10.2103408 C3.59970696,10.0492741 3.64111355,9.87940743 3.6843663,9.70154076 C3.73447619,9.52554076 3.80515751,9.34687409 3.86898168,9.15754076 C3.90194872,9.06314076 3.93570696,8.96687409 3.96999267,8.86874076 C4.00744322,8.77167409 4.05649817,8.67754076 4.10027839,8.57914076 C4.19443223,8.38527409 4.27698168,8.17594076 4.39065201,7.97487409 C4.82186081,7.15754076 5.45878388,6.31114076 6.30590476,5.55140743 C7.15355311,4.79674076 8.22353114,4.13060743 9.47047619,3.73754076 C10.7187399,3.34474076 12.119707,3.22074076 13.5322784,3.44314076 C14.9485421,3.65060743 16.3466081,4.26927409 17.5450256,5.19327409 C17.7022125,5.29994076 17.8390916,5.43220743 17.9809817,5.55887409 C18.1202344,5.68820743 18.2692454,5.80874076 18.4013773,5.94687409 C18.6558828,6.23167409 18.9338608,6.49940743 19.1538168,6.81727409 C19.6393553,7.41754076 20.0048938,8.11007409 20.3245421,8.81700743 C20.4545641,9.18314076 20.6167619,9.53967409 20.70063,9.92127409 C20.7488938,10.1100741 20.8045421,10.2962074 20.8462125,10.4876741 L20.94063,11.0732741 L20.9865201,11.3660741 L21.0033993,11.6476741 L21.037685,12.2095408 C21.0413773,12.4303408 21.0260806,12.6039408 21.0208059,12.8031408 C21.0097289,12.9959408 21.0155311,13.1900741 20.9807179,13.3802074 C20.9258608,13.7615408 20.8865641,14.1450074 20.7805421,14.5135408 C20.7320147,14.6983408 20.6974652,14.8868741 20.6373333,15.0674074 C20.5745641,15.2471408 20.5117949,15.4263408 20.4492894,15.6047408 C20.3928498,15.7860741 20.3145201,15.9575408 20.2332894,16.1271408 C20.1539048,16.2978074 20.0750476,16.4676741 19.9964542,16.6372741 C19.9023004,16.7983408 19.8081465,16.9588741 19.7145201,17.1188741 C19.6222125,17.2799408 19.5288498,17.4394074 19.415707,17.5844741 C18.574652,18.7900741 17.4891136,19.7647408 16.3044103,20.4095408 C15.7083663,20.7242074 15.1033553,20.9868741 14.4920147,21.1588741 C14.1839707,21.2386074 13.890696,21.3372741 13.5750037,21.3756741 C13.2680147,21.4226074 12.9512674,21.4898074 12.6798828,21.4932741 C11.5239267,21.5866074 10.415707,21.4663408 9.49711355,21.1916741 C8.57588278,20.9188741 7.79786081,20.5748741 7.21553114,20.1964741 C7.06783883,20.1031408 6.92357509,20.0300741 6.79645421,19.9332741 C6.66880586,19.8383408 6.5490696,19.7495408 6.43777289,19.6663408 C6.32700366,19.5828741 6.22467399,19.5055408 6.13078388,19.4348741 C6.05034432,19.3623408 5.97755311,19.2962074 5.91214652,19.2375408 C5.65078388,19.0012741 5.5112674,18.8754074 5.5112674,18.8754074 L6.22230037,18.0863408 L6.22230037,18.0863408 Z" id="Shape"></path>
                    <path d="M8.11885714,16.2055988 C8.11885714,16.2055988 8.21353846,16.2959988 8.3912967,16.4658655 C8.4356044,16.5079988 8.48518681,16.5554655 8.53978022,16.6074655 C8.59173626,16.6479988 8.6487033,16.6922655 8.71015385,16.7402655 C8.83173626,16.8362655 8.96835165,16.9501321 9.15217582,17.0586655 C9.49687912,17.2991988 9.96210989,17.5178655 10.5167473,17.7015988 C11.0761319,17.8855988 11.730989,17.9781321 12.4718242,17.9402655 C12.6778022,17.9418655 12.8389451,17.9039988 13.0217143,17.8823988 C13.2002637,17.8677321 13.3888352,17.8098655 13.578989,17.7663988 C13.9592967,17.6714655 14.3377582,17.5186655 14.7135824,17.3341321 C15.4612747,16.9551988 16.1567473,16.3642655 16.707956,15.6207988 C17.2689231,14.8818655 17.6278681,13.9567988 17.7718681,12.9858655 C17.7985055,12.8653321 17.7974505,12.7410655 17.8077363,12.6181321 C17.8145934,12.5010655 17.8272527,12.3570655 17.8301538,12.2607988 L17.8164396,11.8687988 L17.8098462,11.6722655 L17.7850549,11.4911988 L17.7362637,11.1285321 C17.7133187,11.0069321 17.6798242,10.8847988 17.6523956,10.7626655 C17.6057143,10.5146655 17.5062857,10.2826655 17.429011,10.0431988 C17.2343736,9.58106546 17.0101978,9.12399879 16.704,8.72453212 C16.5665934,8.51306546 16.3896264,8.33413212 16.2282198,8.14266546 C16.1448791,8.04933212 16.0486154,7.96906546 15.96,7.88133212 C15.869011,7.79599879 15.781978,7.70586546 15.6807033,7.63359879 C14.9105934,7.00613212 13.9993846,6.56906546 13.0618022,6.40586546 C12.1271209,6.23146546 11.1779341,6.28879879 10.3384615,6.52906546 C9.49213187,6.77066546 8.75472527,7.20159879 8.16369231,7.69973212 C7.57318681,8.20106546 7.12061538,8.76853212 6.80914286,9.32213212 C6.72738462,9.45839879 6.66725275,9.60053212 6.59841758,9.73253212 C6.52720879,9.86373212 6.47498901,9.99706546 6.42804396,10.1269321 C6.38057143,10.2562655 6.32835165,10.3786655 6.29063736,10.4991988 C6.25740659,10.6213321 6.22575824,10.7381321 6.19569231,10.8487988 C6.12606593,11.0685321 6.1083956,11.2741321 6.07463736,11.4495988 C6.03903297,11.6253321 6.03164835,11.7773321 6.02452747,11.9002655 C6.0087033,12.1466655 6,12.2781321 6,12.2781321 C6,12.2781321 6.00474725,12.1463988 6.01292308,11.8994655 C6.01635165,11.7757321 6.01898901,11.6229321 6.04931868,11.4458655 C6.07727473,11.2687988 6.08887912,11.0610655 6.15217582,10.8378655 C6.17907692,10.7253321 6.2072967,10.6066655 6.23683516,10.4823988 C6.27138462,10.3594655 6.31991209,10.2343988 6.36395604,10.1021321 C6.40720879,9.96906546 6.45626374,9.83226546 6.52351648,9.69733212 C6.58892308,9.56159879 6.64589011,9.41493212 6.72448352,9.27413212 C7.02356044,8.70186546 7.46610989,8.10773212 8.05635165,7.57333212 C8.64712088,7.04239879 9.39454945,6.57226546 10.2677802,6.29226546 C11.1431209,6.01253212 12.1247473,5.92079879 13.1185055,6.07306546 C14.1143736,6.21466546 15.0996923,6.64586546 15.9468132,7.29279879 C16.0575824,7.36746546 16.1541099,7.46026546 16.2548571,7.54879879 C16.3532308,7.63946546 16.4587253,7.72373212 16.5520879,7.82106546 C16.7327473,8.02079879 16.928967,8.20906546 17.0850989,8.43226546 C17.429011,8.85439879 17.6893187,9.34133212 17.9166593,9.83973212 C18.010022,10.0975988 18.125011,10.3493321 18.1859341,10.6183988 C18.2204835,10.7517321 18.2605714,10.8826655 18.2903736,11.0183988 L18.3594725,11.4346655 L18.3924396,11.6426655 L18.4053626,11.8386655 L18.4312088,12.2301321 C18.4341099,12.3943988 18.4240879,12.5111988 18.4209231,12.6541321 C18.4138022,12.7903988 18.4177582,12.9277321 18.3934945,13.0623988 C18.2692747,14.1437321 17.8984615,15.1922655 17.2952967,16.0445321 C16.7021538,16.9015988 15.9346813,17.5965321 15.0944176,18.0578655 C14.6719121,18.2834655 14.2425495,18.4717321 13.8081758,18.5959988 C13.589011,18.6541321 13.3814505,18.7237321 13.1541099,18.7530655 C12.9344176,18.7882655 12.7033846,18.8359988 12.5174505,18.8391988 C11.6996044,18.9079988 10.9065495,18.8255988 10.2516923,18.6319988 C9.5941978,18.4391988 9.03824176,18.1954655 8.6218022,17.9269321 C8.40738462,17.8085321 8.22250549,17.6687988 8.06215385,17.5477321 C7.98224176,17.4874655 7.9083956,17.4317321 7.84061538,17.3807988 C7.78443956,17.3306655 7.73353846,17.2847988 7.68764835,17.2437321 C7.50487912,17.0799988 7.4072967,16.9925321 7.4072967,16.9925321 L8.11885714,16.2055988 L8.11885714,16.2055988 Z" id="Shape"></path>
                    <path d="M10.0264908,14.3383442 C10.0264908,14.3383442 10.0795018,14.3898109 10.1789304,14.4866109 C10.2039853,14.5108776 10.2316777,14.5378109 10.2620073,14.5676776 C10.2881172,14.5882109 10.3166007,14.6103442 10.3471941,14.6346109 C10.407326,14.6834109 10.474315,14.7418109 10.5718974,14.8007442 C10.7517656,14.9295442 10.9949304,15.0476776 11.286359,15.1482109 C11.5822711,15.2487442 11.920381,15.3036776 12.3249524,15.2871442 C12.4460073,15.2892776 12.5174799,15.2684776 12.6147985,15.2596776 C12.7049963,15.2548776 12.8081172,15.2223442 12.9091282,15.2023442 C13.1122051,15.1538109 13.3142271,15.0748776 13.5167766,14.9796776 C13.9176557,14.7810109 14.2945348,14.4703442 14.5959853,14.0740776 C14.9019194,13.6796776 15.1018315,13.1842109 15.1864908,12.6594109 C15.2075897,12.5340776 15.2126007,12.3804776 15.2226227,12.2724776 L15.2176117,12.0508776 L15.2147106,11.9402109 L15.202315,11.8442109 C15.1841172,11.5911442 15.1071062,11.3138109 15.0190183,11.0580776 C14.8212161,10.5476776 14.4981392,10.0770109 14.0774799,9.72821089 C13.6589304,9.37807755 13.1599414,9.13141089 12.6430183,9.03461089 C12.1276777,8.93167755 11.5988864,8.95701089 11.132337,9.08474422 C10.6602491,9.21354422 10.2461832,9.44821089 9.91229304,9.72287755 C9.57866667,9.99914422 9.32126007,10.3138109 9.14244689,10.6226109 C8.96864469,10.9332776 8.84758974,11.2252776 8.78719414,11.4770109 C8.72231502,11.7268776 8.69066667,11.9300776 8.68328205,12.0690109 C8.67246886,12.2079442 8.66666667,12.2823442 8.66666667,12.2823442 C8.66666667,12.2823442 8.66824908,12.2079442 8.67167766,12.0682109 C8.67088645,11.9284776 8.69119414,11.7228776 8.74315018,11.4663442 C8.79035897,11.2079442 8.89611722,10.9044776 9.05726007,10.5748776 C9.22341392,10.2474109 9.47079853,9.90607755 9.80442491,9.59701089 C10.1377875,9.28981089 10.5621392,9.01541089 11.0608645,8.84821089 C11.5630183,8.68127755 12.1247766,8.62154422 12.6986667,8.70234422 C13.2738755,8.77701089 13.8469744,9.01807755 14.3425348,9.38741089 C14.8399414,9.75487755 15.2426667,10.2708776 15.5061392,10.8538109 C15.5620513,11.0036776 15.6314139,11.1495442 15.6686007,11.3063442 L15.7326886,11.5394109 L15.7759414,11.7860776 L15.7967766,11.9098109 L15.8054799,12.0210109 L15.8226227,12.2420776 C15.8268425,12.3484776 15.8207766,12.4095442 15.8199853,12.4954109 C15.8160293,12.5754109 15.8205128,12.6562109 15.807326,12.7348776 C15.7427106,13.3700776 15.5311941,13.9890109 15.183326,14.4962109 C14.8402051,15.0060776 14.391326,15.4212776 13.8981392,15.7018109 C13.6496996,15.8386109 13.3962491,15.9530109 13.13937,16.0306109 C13.0088205,16.0660776 12.8890842,16.1098109 12.7495678,16.1292776 C12.6192821,16.1511442 12.4697436,16.1826109 12.3695238,16.1852776 C11.8932161,16.2332776 11.4134799,16.1887442 11.0231502,16.0788776 C10.6291282,15.9700776 10.2949744,15.8271442 10.0436337,15.6706109 C9.91572161,15.6015442 9.8007326,15.5183442 9.70130403,15.4444776 C9.65198535,15.4076776 9.60635897,15.3738109 9.56442491,15.3428776 C9.53224908,15.3151442 9.5032381,15.2895442 9.47686447,15.2668776 C9.37216117,15.1759442 9.31624908,15.1274109 9.31624908,15.1274109 L10.0264908,14.3383442 L10.0264908,14.3383442 Z" id="Shape"></path>
                    <rect id="Rectangle-path" transform="translate(7.767978, 15.767458) rotate(135.004051) translate(-7.767978, -15.767458) " x="2.03017712" y="15.234092" width="11.4756025" height="1.06673186"></rect>
                    <path d="M11.985348,10.6666667 C11.2576996,10.6666667 10.6666667,11.2634667 10.6666667,11.9997333 C10.6666667,12.7357333 11.2576996,13.3330667 11.985348,13.3330667 C12.7129963,13.3330667 13.3040293,12.7357333 13.3040293,11.9997333 C13.3040293,11.2634667 12.7129963,10.6666667 11.985348,10.6666667 L11.985348,10.6666667 L11.985348,10.6666667 Z" id="Shape"></path>
                    <path d="M10.6666667,20.6666667 C10.6666667,21.4026667 11.2576996,22 11.985348,22 C12.7129963,22 13.3040293,21.4026667 13.3040293,20.6666667 C13.3040293,19.9301333 12.7129963,19.3333333 11.985348,19.3333333 C11.2576996,19.3333333 10.6666667,19.9301333 10.6666667,20.6666667 Z" id="Shape"></path>
                    <path d="M17.7216117,8.66666667 C17.1395458,8.66666667 16.6666667,9.14426667 16.6666667,9.73333333 C16.6666667,10.3221333 17.1395458,10.8 17.7216117,10.8 C18.3036777,10.8 18.7765568,10.3221333 18.7765568,9.73333333 C18.7765568,9.14426667 18.3036777,8.66666667 17.7216117,8.66666667 L17.7216117,8.66666667 L17.7216117,8.66666667 Z" id="Shape"></path>
                </g>
            </g>
        </g>
    </g>
</svg>