<?xml version="1.0" encoding="UTF-8" standalone="no"?>
<svg width="32px" height="32px" viewBox="0 0 32 32" version="1.1" xmlns="http://www.w3.org/2000/svg" xmlns:xlink="http://www.w3.org/1999/xlink">
    <!-- Generator: Sketch 3.8.3 (29802) - http://www.bohemiancoding.com/sketch -->
    <title>1467088469_43-twitter</title>
    <desc>Created with Sketch.</desc>
    <defs></defs>
    <g id="Page-1" stroke="none" stroke-width="1" fill="none" fill-rule="evenodd">
        <g id="1467088469_43-twitter" fill="#FFFFFF">
            <g id="Layer_1">
                <path d="M16.22272,0.10048 C7.51872,0.10048 0.46272,7.15776 0.46272,15.86048 C0.46272,24.56448 7.51872,31.6192 16.22272,31.6192 C24.92672,31.6192 31.98144,24.56448 31.98144,15.86048 C31.98144,7.15776 24.92608,0.10048 16.22272,0.10048 L16.22272,0.10048 Z M24.16128,12.68288 C24.1696,12.85312 24.1728,13.024 24.1728,13.1968 C24.1728,18.44544 20.17792,24.49664 12.87296,24.49664 C10.6304,24.49664 8.54208,23.83936 6.78464,22.71296 C7.09568,22.74944 7.4112,22.768 7.73184,22.768 C9.59296,22.768 11.3056,22.13312 12.66432,21.06816 C10.92672,21.03552 9.46048,19.88672 8.95488,18.30912 C9.1968,18.35648 9.44576,18.38016 9.70176,18.38016 C10.064,18.38016 10.41472,18.3328 10.74816,18.24128 C8.93056,17.87648 7.5616,16.27008 7.5616,14.34752 C7.5616,14.33024 7.5616,14.3136 7.56224,14.29632 C8.09728,14.59392 8.70976,14.77248 9.36128,14.7936 C8.29504,14.08 7.59424,12.86592 7.59424,11.48736 C7.59424,10.75968 7.79008,10.0768 8.13184,9.49056 C10.09088,11.89312 13.0176,13.47456 16.31872,13.63968 C16.25088,13.34976 16.21568,13.04576 16.21568,12.73472 C16.21568,10.54208 17.9936,8.76352 20.18752,8.76352 C21.32992,8.76352 22.3616,9.24608 23.08608,10.01728 C23.99104,9.84 24.84096,9.50848 25.60832,9.05344 C25.31072,9.98144 24.6816,10.75968 23.86112,11.25056 C24.6656,11.15456 25.43104,10.9408 26.14272,10.62528 C25.61152,11.42336 24.9376,12.12288 24.16128,12.68288 L24.16128,12.68288 Z" id="Shape"></path>
            </g>
        </g>
    </g>
</svg>