<?xml version="1.0" encoding="UTF-8" standalone="no"?>
<svg width="83px" height="16px" viewBox="0 0 83 16" version="1.1" xmlns="http://www.w3.org/2000/svg" xmlns:xlink="http://www.w3.org/1999/xlink">
    <!-- Generator: Sketch 3.7 (28169) - http://www.bohemiancoding.com/sketch -->
    <title>GLIDER</title>
    <desc>Created with Sketch.</desc>
    <defs></defs>
    <g id="Clean-flow" stroke="none" stroke-width="1" fill="none" fill-rule="evenodd">
        <g id="Job-stage-Copy" transform="translate(-33.000000, -22.000000)" fill="#FFFFFF">
            <g id="Group" transform="translate(-1.000000, -3.000000)">
                <path d="M34.6462512,33.02 C34.6462512,37.02 37.8662512,40.2 41.8462512,40.2 C44.7462512,40.2 46.8062512,38.88 46.8062512,38.88 C46.8862512,38.82 46.9662512,38.66 46.9662512,38.56 C46.9662512,36.96 46.9462512,35.32 46.9462512,33.72 C46.9462512,33.52 46.7862512,33.34 46.5862512,33.34 L42.9462512,33.34 C42.7262512,33.34 42.5662512,33.5 42.5662512,33.72 L42.5662512,34.88 C42.5662512,35.08 42.7262512,35.24 42.9462512,35.24 L44.9062512,35.24 L44.9062512,37.48 C44.7062512,37.56 43.5662512,38.16 41.9062512,38.16 C39.0662512,38.16 36.8862512,35.76 36.8862512,32.98 C36.8862512,30.18 39.0662512,27.78 41.9062512,27.78 C43.1262512,27.78 44.3662512,28.32 45.3062512,29.14 C45.5062512,29.32 45.6662512,29.34 45.8262512,29.16 C46.1262512,28.84 46.4262512,28.54 46.7262512,28.22 C46.8862512,28.06 46.8662512,27.82 46.7062512,27.66 C45.3462512,26.5 43.7662512,25.8 41.8462512,25.8 C37.8662512,25.8 34.6462512,29.02 34.6462512,33.02 L34.6462512,33.02 Z M52.9062511,39.62 C52.9062511,39.82 53.0662511,40 53.2862511,40 L60.4062511,40 C60.6262511,40 60.7862511,39.82 60.7862511,39.62 L60.7862511,38.52 C60.7862511,38.32 60.6262511,38.14 60.4062511,38.14 L54.9862511,38.14 L54.9862511,26.38 C54.9862511,26.18 54.8062511,26 54.6062511,26 L53.2862511,26 C53.0662511,26 52.9062511,26.18 52.9062511,26.38 L52.9062511,39.62 Z M65.6862511,39.62 C65.6862511,39.82 65.8662511,40 66.0662511,40 L67.3862511,40 C67.5862511,40 67.7662511,39.82 67.7662511,39.62 L67.7662511,26.38 C67.7662511,26.18 67.5862511,26 67.3862511,26 L66.0662511,26 C65.8662511,26 65.6862511,26.18 65.6862511,26.38 L65.6862511,39.62 Z M74.446251,39.62 C74.446251,39.82 74.606251,40 74.806251,40 L79.406251,40 C83.266251,40 86.426251,36.86 86.426251,32.98 C86.426251,29.14 83.266251,26 79.406251,26 L74.806251,26 C74.606251,26 74.446251,26.18 74.446251,26.38 L74.446251,39.62 Z M76.486251,38.1 L76.486251,27.9 L79.126251,27.9 C82.066251,27.9 84.206251,30.04 84.206251,32.98 C84.206251,35.94 82.066251,38.1 79.126251,38.1 L76.486251,38.1 Z M92.106251,39.62 C92.106251,39.82 92.266251,40 92.486251,40 L100.486251,40 C100.706251,40 100.866251,39.82 100.866251,39.62 L100.866251,38.52 C100.866251,38.32 100.706251,38.14 100.486251,38.14 L94.166251,38.14 L94.166251,33.84 L99.506251,33.84 C99.706251,33.84 99.886251,33.68 99.886251,33.46 L99.886251,32.34 C99.886251,32.14 99.706251,31.96 99.506251,31.96 L94.166251,31.96 L94.166251,27.88 L100.486251,27.88 C100.706251,27.88 100.866251,27.7 100.866251,27.5 L100.866251,26.38 C100.866251,26.18 100.706251,26 100.486251,26 L92.486251,26 C92.266251,26 92.106251,26.18 92.106251,26.38 L92.106251,39.62 Z M106.686251,39.62 C106.686251,39.82 106.846251,40 107.066251,40 L108.366251,40 C108.566251,40 108.746251,39.82 108.746251,39.62 L108.746251,34.52 L111.766251,34.52 L114.426251,39.82 C114.466251,39.9 114.586251,40 114.746251,40 L116.306251,40 C116.646251,40 116.786251,39.68 116.646251,39.42 L113.906251,34.34 C115.646251,33.64 116.866251,32.12 116.866251,30.28 C116.866251,27.9 114.906251,26 112.506251,26 L107.066251,26 C106.846251,26 106.686251,26.18 106.686251,26.38 L106.686251,39.62 Z M108.786251,32.8 L108.786251,27.94 L112.346251,27.94 C113.646251,27.94 114.786251,29.02 114.786251,30.32 C114.786251,31.7 113.646251,32.8 112.346251,32.8 L108.786251,32.8 Z" id="GLIDER"></path>
            </g>
        </g>
    </g>
</svg>